# xmcd
#
# Track frame offsets:
#	150
#	22898
#	37745
#	53432
#	75332
#	91823
#	112913
#	127563
#	142363
#	169519
#	184567
#	191712
#	201560
#	214530
#	237515
#
# Disc length: 3451 seconds
#
# Revision: 0
# Processed by: cddbd v1.5.2PL0 Copyright (c) Steve Scherf et al.
# Submitted via: audiograbber 1.83.01
#
DISCID=b60d790f
DTITLE=Robert Krestan - Druha Trava
DYEAR=2009
DGENRE=
TTITLE0=Zast
TTITLE1=Spanelsky nebe
TTITLE2=Jeste jedno kafe
TTITLE3=Vrat se
TTITLE4=Zatisi s buvoly
TTITLE5=Smutecni marse
TTITLE6=Praha bolestivosti
TTITLE7=V nevysokych horach
TTITLE8=Nez zazvoni hrana
TTITLE9=Letni romance
TTITLE10=Karluv remen
TTITLE11=One more night
TTITLE12=Pavouk Dlouha noha
TTITLE13=Napsal jsem jmeno svy na zdi
TTITLE14=Zast
EXTD=
EXTT0=
EXTT1=
EXTT2=
EXTT3=
EXTT4=
EXTT5=
EXTT6=
EXTT7=
EXTT8=
EXTT9=
EXTT10=
EXTT11=
EXTT12=
EXTT13=
EXTT14=
PLAYORDER=
